<svg width="1440" height="1075" viewBox="0 0 1440 1075" fill="none" xmlns="http://www.w3.org/2000/svg">
<g opacity="0.36">
<g filter="url(#filter0_f_1_852)">
<ellipse cx="482.833" cy="226.419" rx="482.833" ry="226.419" transform="matrix(0.929247 0.369458 -0.391961 0.919982 -104.449 263.569)" fill="#DA49FF" fill-opacity="0.22"/>
</g>
<g filter="url(#filter1_f_1_852)">
<ellipse cx="425.095" cy="345.651" rx="425.095" ry="345.651" transform="matrix(0.929247 0.369458 -0.391961 0.919982 -252.037 -6.10986)" fill="#4880FB" fill-opacity="0.37"/>
</g>
<g filter="url(#filter2_f_1_852)">
<ellipse cx="511.335" cy="228.155" rx="511.335" ry="228.155" transform="matrix(-0.929247 0.369458 0.391961 0.919982 1572.28 279.569)" fill="#DA49FF" fill-opacity="0.22"/>
</g>
<g filter="url(#filter3_f_1_852)">
<ellipse cx="434.625" cy="368.451" rx="434.625" ry="368.451" transform="matrix(-0.929247 0.369458 0.391961 0.919982 1670.75 -16.1519)" fill="#4880FB" fill-opacity="0.37"/>
</g>
</g>
<g opacity="0.6">
<mask id="mask0_1_852" style="mask-type:alpha" maskUnits="userSpaceOnUse" x="0" y="0" width="1440" height="978">
<rect x="1440" y="978" width="1440" height="978" transform="rotate(180 1440 978)" fill="url(#paint0_linear_1_852)"/>
</mask>
<g mask="url(#mask0_1_852)">
<line x1="1272" y1="391" x2="1272" y2="-3.71873e-08" stroke="white" stroke-opacity="0.6" stroke-width="2"/>
<line x1="1015" y1="391" x2="1015" y2="-3.71873e-08" stroke="white" stroke-opacity="0.6" stroke-width="2"/>
<line x1="1186" y1="391" x2="1186" y2="-3.71873e-08" stroke="white" stroke-opacity="0.6" stroke-width="2"/>
<line x1="929" y1="391" x2="929" y2="-3.71873e-08" stroke="white" stroke-opacity="0.6" stroke-width="2"/>
<line x1="1358" y1="391" x2="1358" y2="-3.71873e-08" stroke="white" stroke-opacity="0.6" stroke-width="2"/>
<line x1="1101" y1="391" x2="1101" y2="-3.71873e-08" stroke="white" stroke-opacity="0.6" stroke-width="2"/>
<line x1="1440" y1="172" x2="823" y2="172" stroke="white" stroke-opacity="0.6" stroke-width="2"/>
<line x1="1440" y1="258" x2="823" y2="258" stroke="white" stroke-opacity="0.6" stroke-width="2"/>
<line x1="1440" y1="87" x2="823" y2="87" stroke="white" stroke-opacity="0.6" stroke-width="2"/>
</g>
</g>
<g opacity="0.6">
<mask id="mask1_1_852" style="mask-type:alpha" maskUnits="userSpaceOnUse" x="0" y="0" width="1440" height="978">
<rect width="1440" height="978" transform="matrix(1 0 0 -1 0 978)" fill="url(#paint1_linear_1_852)"/>
</mask>
<g mask="url(#mask1_1_852)">
<line y1="-1" x2="391" y2="-1" transform="matrix(-5.138e-08 -1 -1 3.71873e-08 167 391)" stroke="white" stroke-opacity="0.6" stroke-width="2"/>
<line y1="-1" x2="391" y2="-1" transform="matrix(-5.138e-08 -1 -1 3.71873e-08 424 391)" stroke="white" stroke-opacity="0.6" stroke-width="2"/>
<line y1="-1" x2="391" y2="-1" transform="matrix(-5.138e-08 -1 -1 3.71873e-08 253 391)" stroke="white" stroke-opacity="0.6" stroke-width="2"/>
<line y1="-1" x2="391" y2="-1" transform="matrix(-5.138e-08 -1 -1 3.71873e-08 510 391)" stroke="white" stroke-opacity="0.6" stroke-width="2"/>
<line y1="-1" x2="391" y2="-1" transform="matrix(-5.138e-08 -1 -1 3.71873e-08 81 391)" stroke="white" stroke-opacity="0.6" stroke-width="2"/>
<line y1="-1" x2="391" y2="-1" transform="matrix(-5.138e-08 -1 -1 3.71873e-08 338 391)" stroke="white" stroke-opacity="0.6" stroke-width="2"/>
<line y1="-1" x2="617" y2="-1" transform="matrix(1 0 0 -1 0 171)" stroke="white" stroke-opacity="0.6" stroke-width="2"/>
<line y1="-1" x2="617" y2="-1" transform="matrix(1 0 0 -1 0 257)" stroke="white" stroke-opacity="0.6" stroke-width="2"/>
<line y1="-1" x2="617" y2="-1" transform="matrix(1 0 0 -1 0 86)" stroke="white" stroke-opacity="0.6" stroke-width="2"/>
</g>
</g>
<defs>
<filter id="filter0_f_1_852" x="-401.977" y="176.005" width="1314.9" height="948.503" filterUnits="userSpaceOnUse" color-interpolation-filters="sRGB">
<feFlood flood-opacity="0" result="BackgroundImageFix"/>
<feBlend mode="normal" in="SourceGraphic" in2="BackgroundImageFix" result="shape"/>
<feGaussianBlur stdDeviation="100" result="effect1_foregroundBlur_1_852"/>
</filter>
<filter id="filter1_f_1_852" x="-610.22" y="-85.804" width="1235.44" height="1109.48" filterUnits="userSpaceOnUse" color-interpolation-filters="sRGB">
<feFlood flood-opacity="0" result="BackgroundImageFix"/>
<feBlend mode="normal" in="SourceGraphic" in2="BackgroundImageFix" result="shape"/>
<feGaussianBlur stdDeviation="100" result="effect1_foregroundBlur_1_852"/>
</filter>
<filter id="filter2_f_1_852" x="502.967" y="195.987" width="1367.17" height="964.795" filterUnits="userSpaceOnUse" color-interpolation-filters="sRGB">
<feFlood flood-opacity="0" result="BackgroundImageFix"/>
<feBlend mode="normal" in="SourceGraphic" in2="BackgroundImageFix" result="shape"/>
<feGaussianBlur stdDeviation="100" result="effect1_foregroundBlur_1_852"/>
</filter>
<filter id="filter3_f_1_852" x="782.257" y="-91.7744" width="1258.07" height="1150.33" filterUnits="userSpaceOnUse" color-interpolation-filters="sRGB">
<feFlood flood-opacity="0" result="BackgroundImageFix"/>
<feBlend mode="normal" in="SourceGraphic" in2="BackgroundImageFix" result="shape"/>
<feGaussianBlur stdDeviation="100" result="effect1_foregroundBlur_1_852"/>
</filter>
<linearGradient id="paint0_linear_1_852" x1="1192" y1="2196.24" x2="1977.06" y2="1614.77" gradientUnits="userSpaceOnUse">
<stop stop-color="#D9D9D9"/>
<stop offset="0.71427" stop-color="#D9D9D9" stop-opacity="0"/>
</linearGradient>
<linearGradient id="paint1_linear_1_852" x1="-248" y1="1218.24" x2="620.907" y2="606.154" gradientUnits="userSpaceOnUse">
<stop stop-color="#D9D9D9"/>
<stop offset="0.65268" stop-color="#D9D9D9" stop-opacity="0"/>
</linearGradient>
</defs>
</svg>
