<svg xmlns="http://www.w3.org/2000/svg" xmlns:xlink="http://www.w3.org/1999/xlink" viewBox="0,0,256,256" width="40px" height="40px"><g fill="none" fill-rule="nonzero" stroke="none" stroke-width="1" stroke-linecap="butt" stroke-linejoin="miter" stroke-miterlimit="10" stroke-dasharray="" stroke-dashoffset="0" font-family="none" font-weight="none" font-size="none" text-anchor="none" style="mix-blend-mode: normal"><g transform="scale(5.33333,5.33333)"><path d="M24,4c-11.04569,0 -20,8.95431 -20,20c0,11.04569 8.95431,20 20,20c11.04569,0 20,-8.95431 20,-20c0,-11.04569 -8.95431,-20 -20,-20z" fill="#6296f4"></path><path d="M36,17.12c-0.882,0.391 -1.999,0.758 -3,0.88c1.018,-0.604 2.633,-1.862 3,-3c-0.951,0.559 -2.671,1.156 -3.793,1.372c-0.896,-0.95 -2.174,-1.372 -3.59,-1.372c-2.72,0 -4.617,2.305 -4.617,5v2c-4,0 -7.9,-3.047 -10.327,-6c-0.427,0.721 -0.667,1.565 -0.667,2.457c0,1.819 1.671,3.665 2.994,4.543c-0.807,-0.025 -2.335,-0.641 -3,-1c0,0.016 0,0.036 0,0.057c0,2.367 1.661,3.974 3.912,4.422c-0.411,0.113 -0.912,0.521 -2.84,0.521c0.626,1.935 3.773,2.958 5.928,3c-1.686,1.307 -4.692,2 -7,2c-0.399,0 -0.615,0.022 -1,-0.023c2.178,1.38 5.22,2.023 8,2.023c9.057,0 14,-6.918 14,-13.37c0,-0.212 -0.007,-0.922 -0.018,-1.13c0.968,-0.682 1.36,-1.396 2.018,-2.38" fill="#ffffff"></path></g></g></svg>